<svg width="40" height="40" viewBox="0 0 40 40" fill="none" xmlns="http://www.w3.org/2000/svg">
<g id="clapperboard 1" clip-path="url(#clip0_30_25)">
<g id="Group">
<g id="Group_2">
<path id="Vector" d="M39.1505 14.9907H2.47014C2.00997 14.9907 1.63647 15.3642 1.63647 15.8244V35.8318C1.63647 38.1293 3.50553 40 5.80466 40H35.8158C38.115 40 39.984 38.1293 39.984 35.8318V15.8244C39.9841 15.3641 39.6106 14.9907 39.1505 14.9907ZM38.3168 35.8317C38.3168 37.2106 37.1948 38.3327 35.8159 38.3327H5.80474C4.42587 38.3327 3.30381 37.2106 3.30381 35.8317V16.658H38.3168V35.8317Z" fill="#CD2E71"/>
</g>
</g>
<g id="Group_3">
<g id="Group_4">
<path id="Vector_2" d="M39.9574 7.27613L38.5385 1.89249C38.2118 0.583649 36.8746 -0.238297 35.5491 0.0618146L1.95994 8.03141C1.2997 8.18147 0.741133 8.58326 0.386001 9.16019C0.0308697 9.73705 -0.0741693 10.4173 0.0925332 11.0775L1.66312 17.2865C1.75651 17.6633 2.09664 17.9151 2.47006 17.9151C2.53672 17.9151 2.60511 17.9084 2.67677 17.8901C3.12194 17.7784 3.39204 17.3249 3.27864 16.8781L3.18696 16.5163L39.3354 8.30323C39.5555 8.25157 39.7472 8.1148 39.8639 7.92145C39.9824 7.72802 40.0141 7.49457 39.9574 7.27613ZM2.77861 14.899L1.70821 10.6724C1.65319 10.4523 1.68984 10.2256 1.80661 10.0322C1.92501 9.84044 2.11172 9.70703 2.33844 9.65366L35.9276 1.68578C35.9876 1.67077 36.0492 1.66413 36.1093 1.66413C36.4828 1.66413 36.8279 1.92086 36.9229 2.30601L38.125 6.86606L2.77861 14.899Z" fill="#CD2E71"/>
</g>
</g>
<g id="Group_5">
<g id="Group_6">
<path id="Vector_3" d="M9.51275 15.0774C9.09924 14.8757 8.60241 15.039 8.39233 15.4509L5.05774 22.12C4.85266 22.5318 5.01936 23.032 5.43123 23.2388C5.55292 23.2988 5.67969 23.3272 5.80473 23.3272C6.10985 23.3272 6.40496 23.1587 6.55165 22.8654L9.88625 16.1962C10.0913 15.7843 9.92454 15.2841 9.51275 15.0774Z" fill="#CD2E71"/>
</g>
</g>
<g id="Group_7">
<g id="Group_8">
<path id="Vector_4" d="M17.8476 15.0774C17.4358 14.8757 16.9356 15.039 16.7288 15.4509L13.3942 22.12C13.1891 22.5318 13.3558 23.032 13.7677 23.2388C13.8894 23.2988 14.0162 23.3272 14.1412 23.3272C14.4463 23.3272 14.7414 23.1587 14.8865 22.8654L18.2211 16.1962C18.4261 15.7843 18.2594 15.2841 17.8476 15.0774Z" fill="#CD2E71"/>
</g>
</g>
<g id="Group_9">
<g id="Group_10">
<path id="Vector_5" d="M26.184 15.0774C25.7738 14.8757 25.2736 15.039 25.0652 15.4509L21.7306 22.12C21.5255 22.5318 21.6922 23.032 22.1041 23.2388C22.2258 23.2988 22.3525 23.3272 22.4776 23.3272C22.7827 23.3272 23.0778 23.1587 23.2229 22.8654L26.5574 16.1962C26.7625 15.7843 26.5957 15.2841 26.184 15.0774Z" fill="#CD2E71"/>
</g>
</g>
<g id="Group_11">
<g id="Group_12">
<path id="Vector_6" d="M34.5204 15.0774C34.1069 14.8757 33.6101 15.039 33.4016 15.4509L30.067 22.12C29.862 22.5318 30.0287 23.032 30.4405 23.2388C30.5622 23.2988 30.689 23.3272 30.814 23.3272C31.1192 23.3272 31.4143 23.1587 31.5593 22.8654L34.8939 16.1962C35.0989 15.7843 34.9322 15.2841 34.5204 15.0774Z" fill="#CD2E71"/>
</g>
</g>
<g id="Group_13">
<g id="Group_14">
<path id="Vector_7" d="M39.1505 21.6599H2.47014C2.00997 21.6599 1.63647 22.0333 1.63647 22.4935C1.63647 22.9537 2.00997 23.3272 2.47014 23.3272H39.1505C39.6123 23.3272 39.9841 22.9537 39.9841 22.4935C39.9841 22.0333 39.6106 21.6599 39.1505 21.6599Z" fill="#CD2E71"/>
</g>
</g>
<g id="Group_15">
<g id="Group_16">
<path id="Vector_8" d="M10.5315 13.5352L4.78937 7.79303C4.46424 7.46791 3.93569 7.46791 3.61057 7.79303C3.28545 8.11816 3.28545 8.64671 3.61057 8.97183L9.35269 14.7156C9.51611 14.8773 9.72948 14.9591 9.94291 14.9591C10.1564 14.9591 10.3697 14.8774 10.5315 14.714C10.8566 14.3888 10.8566 13.8603 10.5315 13.5352Z" fill="#CD2E71"/>
</g>
</g>
<g id="Group_17">
<g id="Group_18">
<path id="Vector_9" d="M18.6878 11.6828L12.9407 5.94068C12.6156 5.61556 12.0871 5.61556 11.7619 5.94068C11.4368 6.2658 11.4368 6.79436 11.7619 7.11948L17.5074 12.8616C17.6708 13.0233 17.8842 13.1051 18.0976 13.1051C18.3111 13.1051 18.5244 13.0234 18.6879 12.8616C19.013 12.5365 19.013 12.0079 18.6878 11.6828Z" fill="#CD2E71"/>
</g>
</g>
<g id="Group_19">
<g id="Group_20">
<path id="Vector_10" d="M26.8376 9.83045L21.1004 4.08667C20.7753 3.76155 20.2468 3.76155 19.9216 4.08667C19.5965 4.4118 19.5965 4.94035 19.9216 5.26547L25.6588 11.0092C25.8222 11.1709 26.0355 11.2527 26.249 11.2527C26.4624 11.2527 26.6758 11.1727 26.8376 11.0092C27.1627 10.6841 27.1627 10.1556 26.8376 9.83045Z" fill="#CD2E71"/>
</g>
</g>
<g id="Group_21">
<g id="Group_22">
<path id="Vector_11" d="M34.9839 7.97974L29.2451 2.23597C28.92 1.91085 28.3914 1.91085 28.0663 2.23597C27.7412 2.56109 27.7412 3.08964 28.0663 3.41476L33.805 9.15854C33.9685 9.32024 34.1818 9.40199 34.3953 9.40199C34.6087 9.40199 34.8221 9.32031 34.9838 9.15854C35.309 8.83342 35.309 8.30486 34.9839 7.97974Z" fill="#CD2E71"/>
</g>
</g>
</g>
<defs>
<clipPath id="clip0_30_25">
<rect width="40" height="40" fill="white"/>
</clipPath>
</defs>
</svg>
