<svg width="25" height="24" viewBox="0 0 25 24" fill="none" xmlns="http://www.w3.org/2000/svg">
<g id="Group 14">
<path id="Vector" d="M19.1558 3.54822C19.1667 3.54901 19.1776 3.54981 19.1887 3.54981C19.2075 3.54981 19.2263 3.54822 19.2446 3.54565C19.7369 3.55574 20.1309 3.95722 20.1315 4.44947C20.1315 4.67315 20.3128 4.85451 20.5365 4.85451C20.7602 4.85451 20.9415 4.67315 20.9415 4.44947C20.9405 3.64434 20.3801 2.94779 19.5937 2.77454V2.38532C19.5937 2.16164 19.4124 1.98029 19.1887 1.98029C18.965 1.98029 18.7836 2.16164 18.7836 2.38532V2.79293C17.9522 3.01523 17.4143 3.81957 17.5264 4.67295C17.6385 5.52634 18.3659 6.16435 19.2266 6.16435C19.7264 6.16435 20.1315 6.56959 20.1315 7.06936C20.1315 7.56893 19.7264 7.97417 19.2266 7.97417C18.7269 7.97417 18.3218 7.56893 18.3218 7.06936C18.3218 6.84568 18.1405 6.66432 17.9168 6.66432C17.6931 6.66432 17.5118 6.84568 17.5118 7.06936C17.5128 7.84542 18.0341 8.52437 18.7836 8.7259V9.1697C18.7836 9.39338 18.965 9.57474 19.1887 9.57474C19.4124 9.57474 19.5937 9.39338 19.5937 9.1697V8.74449C20.4491 8.5572 21.026 7.75543 20.9316 6.88484C20.8375 6.01424 20.1024 5.35448 19.2266 5.35467C18.7407 5.35487 18.3414 4.97119 18.3222 4.48566C18.3033 4.00013 18.6713 3.5862 19.1558 3.54842V3.54822Z" fill="white"/>
<path id="Vector_2" d="M19.2498 0C16.758 0 14.6316 1.62588 13.835 3.80296H3.782C3.55931 3.80296 3.37854 4.0037 3.37696 4.22619L3.28124 18.4349H0.415717C0.192037 18.4349 0 18.5969 0 18.821V20.6241C0.00514205 22.3216 1.34208 23.716 3.03778 23.7928V23.8017H15.5433V23.7898C15.6446 23.7936 15.6863 23.8017 15.7504 23.8017H15.7591C17.5141 23.7989 18.9355 22.3753 18.9355 20.6203V11.5038C19.0368 11.5094 19.144 11.5123 19.2488 11.5123C22.4197 11.5123 25 8.92704 25 5.75596C25 2.58508 22.4209 0 19.2498 0ZM3.19185 22.9916H3.18928C1.87903 22.9898 0.816008 21.9304 0.810075 20.6199V19.245H12.5562V20.6142C12.5568 21.4595 12.8944 22.2697 13.494 22.8656C13.5365 22.9081 13.5893 22.941 13.6338 22.9916H3.19185ZM18.1254 20.6199C18.1256 21.928 17.0666 22.989 15.7587 22.9916H15.751C14.4378 22.9892 13.3728 21.9276 13.3662 20.6146V18.821C13.3696 18.7174 13.33 18.6171 13.2567 18.5439C13.1833 18.4707 13.083 18.4314 12.9796 18.4349H4.09132L4.18427 4.61304H13.6101C13.5383 4.98386 13.5011 5.36042 13.4991 5.73796C13.4984 6.53637 13.6649 7.32588 13.988 8.05585H10.1623C9.93845 8.05585 9.75729 8.23721 9.75729 8.46089C9.75729 8.68457 9.93845 8.86593 10.1623 8.86593H14.4275C15.2631 10.1799 16.5988 11.096 18.1254 11.4026V20.6199ZM19.2498 10.7024C16.5213 10.7024 14.3092 8.49056 14.3094 5.76189C14.3094 3.03323 16.5213 0.821348 19.25 0.821348C21.9784 0.821348 24.1903 3.03343 24.1903 5.76189C24.1874 8.48917 21.9772 10.6995 19.2498 10.7024Z" fill="white"/>
<path id="Vector_3" d="M7.56239 10.7515C6.84744 10.7515 6.26599 11.3145 6.26599 12.0067C6.26599 12.6989 6.84744 13.262 7.56239 13.262C8.27734 13.262 8.85899 12.6989 8.85899 12.0067C8.85899 11.3145 8.27734 10.7515 7.56239 10.7515ZM7.56239 12.4519C7.29401 12.4519 7.07607 12.2522 7.07607 12.0067C7.07607 11.7611 7.29421 11.5615 7.56239 11.5615C7.83057 11.5615 8.04891 11.7613 8.04891 12.0067C8.04891 12.2522 7.83057 12.4519 7.56239 12.4519Z" fill="white"/>
<path id="Vector_4" d="M9.75732 12.005C9.75732 12.2287 9.93848 12.41 10.1624 12.41H15.5623C15.786 12.41 15.9674 12.2287 15.9674 12.005C15.9674 11.7813 15.786 11.5999 15.5623 11.5999H10.1624C9.93848 11.5999 9.75732 11.7813 9.75732 12.005Z" fill="white"/>
<path id="Vector_5" d="M7.56239 7.2305C6.84744 7.2305 6.26599 7.79375 6.26599 8.48596C6.26599 9.17816 6.84744 9.74122 7.56239 9.74122C8.27734 9.74122 8.85899 9.17816 8.85899 8.48596C8.85899 7.79375 8.27734 7.2305 7.56239 7.2305ZM7.56239 8.93114C7.29401 8.93114 7.07607 8.73139 7.07607 8.48596C7.07607 8.24052 7.29421 8.04057 7.56239 8.04057C7.83057 8.04057 8.04891 8.24032 8.04891 8.48596C8.04891 8.73139 7.83057 8.93134 7.56239 8.93134V8.93114Z" fill="white"/>
<path id="Vector_6" d="M7.56239 14.272C6.84744 14.272 6.26599 14.8351 6.26599 15.5273C6.26599 16.2195 6.84744 16.7825 7.56239 16.7825C8.27734 16.7825 8.85899 16.2195 8.85899 15.5273C8.85899 14.8351 8.27734 14.272 7.56239 14.272ZM7.56239 15.9724C7.29401 15.9724 7.07607 15.7729 7.07607 15.5273C7.07607 15.2818 7.29421 15.0821 7.56239 15.0821C7.83057 15.0821 8.04891 15.2818 8.04891 15.5273C8.04891 15.7727 7.83057 15.9724 7.56239 15.9724Z" fill="white"/>
<path id="Vector_7" d="M15.5623 15.144H10.1624C9.93848 15.144 9.75732 15.3253 9.75732 15.549C9.75732 15.7727 9.93848 15.954 10.1624 15.954H15.5623C15.786 15.954 15.9674 15.7727 15.9674 15.549C15.9674 15.3253 15.786 15.144 15.5623 15.144Z" fill="white"/>
</g>
</svg>
